<svg width="26" height="27" viewBox="0 0 26 27" fill="none" xmlns="http://www.w3.org/2000/svg">
<rect y="0.908203" width="26" height="25.9707" rx="4" fill="#FFECEC"/>
<g clip-path="url(#clip0_146_3145)">
<path d="M17.773 17.9104L13 22.6779L8.22703 17.9104C5.59099 15.2773 5.59099 11.0083 8.22703 8.37519C10.8631 5.74212 15.1369 5.74212 17.773 8.37519C20.409 11.0083 20.409 15.2773 17.773 17.9104ZM13 14.6411C13.8285 14.6411 14.5 13.9703 14.5 13.1428C14.5 12.3153 13.8285 11.6445 13 11.6445C12.1715 11.6445 11.5 12.3153 11.5 13.1428C11.5 13.9703 12.1715 14.6411 13 14.6411Z" fill="#F00109"/>
</g>
<defs>
<clipPath id="clip0_146_3145">
<rect width="18" height="17.9797" fill="white" transform="translate(4 4.90234)"/>
</clipPath>
</defs>
</svg>
