<svg width="26" height="27" viewBox="0 0 26 27" fill="none" xmlns="http://www.w3.org/2000/svg">
<rect y="0.835938" width="26" height="25.9707" rx="4" fill="#FFECEC"/>
<path d="M19.75 17.1318V19.7809C19.75 20.1742 19.4456 20.5005 19.0529 20.5282C18.7248 20.5514 18.4572 20.5629 18.25 20.5629C11.6226 20.5629 6.25 15.1964 6.25 8.57643C6.25 8.36945 6.26159 8.10212 6.28476 7.77446C6.31253 7.38219 6.6392 7.07812 7.03289 7.07812H9.68508C9.87758 7.07812 10.0388 7.22378 10.0581 7.41509C10.0755 7.58685 10.0916 7.72475 10.1066 7.82879C10.2583 8.88712 10.5681 9.89447 11.0115 10.8262C11.0827 10.9757 11.0363 11.1547 10.9014 11.251L9.28266 12.406C10.2681 14.7053 12.1142 16.5493 14.4162 17.5337L15.5703 15.9196C15.6679 15.7832 15.8492 15.7363 16.0007 15.8082C16.9334 16.2507 17.9418 16.5599 19.0012 16.7111C19.1047 16.7259 19.2419 16.7418 19.4126 16.7591C19.6042 16.7784 19.75 16.9395 19.75 17.1318Z" fill="#F00109"/>
</svg>
