<svg width="35" height="30" viewBox="0 0 35 30" fill="none" xmlns="http://www.w3.org/2000/svg">
<path opacity="0.3" d="M29.9062 9.43086C29.9062 7.19411 28.0929 5.38086 25.8562 5.38086H4.5937C2.35695 5.38086 0.543701 7.19411 0.543701 9.43086V25.6309C0.543701 27.8676 2.35695 29.6809 4.5937 29.6809H25.8562C28.0929 29.6809 29.9062 27.8676 29.9062 25.6309V9.43086Z" fill="#F1B334"/>
<path d="M34.467 4.36836C34.467 2.13161 32.6537 0.318359 30.417 0.318359H9.15449C6.91774 0.318359 5.10449 2.13161 5.10449 4.36836V20.5684C5.10449 22.8051 6.91774 24.6184 9.15449 24.6184H30.417C32.6537 24.6184 34.467 22.8051 34.467 20.5684V4.36836Z" fill="#F1B334"/>
<path d="M14.5343 11.9544C13.089 11.9544 11.9172 10.808 11.9172 9.3937C11.9172 7.97949 13.089 6.83301 14.5343 6.83301C15.9796 6.83301 17.1512 7.97949 17.1512 9.3937C17.1512 10.808 15.9796 11.9544 14.5343 11.9544Z" fill="white"/>
<path d="M14.5344 18.413C11.8502 18.413 9.67432 16.2839 9.67432 13.6573V13.3212C9.67432 13.1028 9.85517 12.9258 10.0784 12.9258H18.9903C19.2136 12.9258 19.3946 13.1028 19.3946 13.3212V13.6573C19.3946 16.2839 17.2186 18.413 14.5344 18.413Z" fill="white"/>
<path d="M18.2063 7.89917C18.2063 10.2623 20.1603 12.1548 22.5415 12.1548C24.9228 12.1548 26.8768 10.2623 26.8768 7.89917C26.8768 5.53597 24.9228 3.64355 22.5415 3.64355C20.1603 3.64355 18.2063 5.53597 18.2063 7.89917ZM15.0327 13.9318C15.0327 18.01 18.4076 21.2926 22.5415 21.2926C26.6755 21.2926 30.0504 18.01 30.0504 13.9318V13.4561C30.0504 12.7847 29.4979 12.2639 28.8457 12.2639H16.2373C15.5852 12.2639 15.0327 12.7847 15.0327 13.4561V13.9318Z" fill="white" stroke="#F1B334" stroke-width="0.75"/>
</svg>
