<svg width="123" height="87" viewBox="0 0 123 87" fill="none" xmlns="http://www.w3.org/2000/svg">
<path d="M90.8572 49.9452C100.118 49.9452 107.626 42.1953 107.626 32.6352C107.626 23.0752 100.118 15.3252 90.8572 15.3252C81.5959 15.3252 74.0881 23.0752 74.0881 32.6352C74.0881 42.1953 81.5959 49.9452 90.8572 49.9452Z" fill="#E8F1FF"/>
<path d="M90.7796 54.3398C73.1962 54.3398 58.9424 68.7242 58.9424 86.4671H122.617C122.617 68.7242 108.362 54.3398 90.7796 54.3398Z" fill="#E8F1FF"/>
<path d="M38.6618 42.7962C49.8603 42.7962 58.9385 33.4252 58.9385 21.8654C58.9385 10.3056 49.8603 0.93457 38.6618 0.93457C27.4632 0.93457 18.385 10.3056 18.385 21.8654C18.385 33.4252 27.4632 42.7962 38.6618 42.7962Z" fill="#2D81F7"/>
<g style="mix-blend-mode:multiply">
<path d="M38.5664 47.2002C17.306 47.2002 0.0700684 64.5922 0.0700684 86.0466H77.0635C77.0635 64.5922 59.8276 47.2002 38.5664 47.2002Z" fill="#2D81F7"/>
</g>
</svg>
