<svg width="116" height="83" viewBox="0 0 116 83" fill="none" xmlns="http://www.w3.org/2000/svg">
<g clip-path="url(#clip0_4399_10393)">
<mask id="mask0_4399_10393" style="mask-type:alpha" maskUnits="userSpaceOnUse" x="-142" y="-82" width="259" height="165">
<path d="M109.12 -81.1934H-134.72C-138.74 -81.1934 -141.999 -77.9345 -141.999 -73.9146V75.3007C-141.999 79.3207 -138.74 82.5795 -134.72 82.5795H109.12C113.14 82.5795 116.399 79.3207 116.399 75.3007V-73.9146C116.399 -77.9345 113.14 -81.1934 109.12 -81.1934Z" fill="white"/>
</mask>
<g mask="url(#mask0_4399_10393)">
<path d="M-0.0620117 0.245117H116.264C118.266 0.245117 119.889 1.86802 119.889 3.87005V78.9536C119.889 80.9553 118.266 82.5785 116.264 82.5785H-0.0620117V0.245117Z" fill="#FCB5B5"/>
<path d="M28.6827 47.8049C39.2666 47.8049 47.8464 39.2251 47.8464 28.6412C47.8464 18.0574 39.2666 9.47754 28.6827 9.47754C18.0989 9.47754 9.51904 18.0574 9.51904 28.6412C9.51904 39.2251 18.0989 47.8049 28.6827 47.8049Z" fill="white" fill-opacity="0.2"/>
<mask id="mask1_4399_10393" style="mask-type:alpha" maskUnits="userSpaceOnUse" x="9" y="8" width="40" height="40">
<path d="M28.68 47.8013C39.4598 47.8013 48.1986 38.9831 48.1986 28.1052C48.1986 17.2274 39.4598 8.40918 28.68 8.40918C17.9002 8.40918 9.16138 17.2274 9.16138 28.1052C9.16138 38.9831 17.9002 47.8013 28.68 47.8013Z" fill="white"/>
</mask>
<g mask="url(#mask1_4399_10393)">
<path d="M28.8577 32.7644C33.2689 32.7644 36.845 29.1558 36.845 24.7045C36.845 20.2531 33.2689 16.6445 28.8577 16.6445C24.4464 16.6445 20.8704 20.2531 20.8704 24.7045C20.8704 29.1558 24.4464 32.7644 28.8577 32.7644Z" fill="#F9A2A2"/>
<path d="M28.6818 34.6758C16.1377 34.6758 5.96924 44.9371 5.96924 57.5949H51.3944C51.3944 44.9371 41.2259 34.6758 28.6818 34.6758Z" fill="#F9A2A2"/>
</g>
<path d="M58.0554 44.8027H97.7685V49.6459H58.0554V44.8027Z" fill="white" fill-opacity="0.5"/>
<path d="M18.3433 55.457H97.7704V60.3002H18.3433V55.457Z" fill="white" fill-opacity="0.5"/>
<path d="M85.015 25.5545C88.0188 25.5545 90.4539 23.1194 90.4539 20.1156C90.4539 17.1118 88.0188 14.6768 85.015 14.6768C82.0112 14.6768 79.5762 17.1118 79.5762 20.1156C79.5762 23.1194 82.0112 25.5545 85.015 25.5545Z" fill="#EB5757"/>
<path d="M77.8801 24.7042C74.9659 21.9992 74.9668 17.6283 78.2959 15.1299" stroke="#EB5757" stroke-opacity="0.5" stroke-width="2.17492"/>
<path d="M73.3181 26.9786C68.8834 22.8615 68.8844 16.2096 73.9513 12.4092" stroke="#EB5757" stroke-opacity="0.2" stroke-width="2.17492"/>
<path d="M97.36 26.9786C101.794 22.8615 101.793 16.2096 96.7258 12.4092" stroke="#EB5757" stroke-opacity="0.2" stroke-width="2.17492"/>
<path d="M92.4041 24.7042C95.3183 21.9992 95.3174 17.6283 91.9883 15.1299" stroke="#EB5757" stroke-opacity="0.5" stroke-width="2.17492"/>
</g>
</g>
<defs>
<clipPath id="clip0_4399_10393">
<rect width="116" height="83" fill="white"/>
</clipPath>
</defs>
</svg>
