<svg width="126" height="83" viewBox="0 0 126 83" fill="none" xmlns="http://www.w3.org/2000/svg">
<path d="M4.8877 0.931848C37.216 -3.56377 54.571 9.7826 62.0572 16.7738L62.7379 66.5947H4.8877V0.931848Z" fill="#FFF1DE"/>
<path d="M117.421 0.931848C85.0926 -3.56377 67.7368 9.7826 60.2506 16.7738L59.5698 66.5947H117.421V0.931848Z" fill="#FFF1DE"/>
<path d="M0.134033 7.95645C29.3911 1.03306 54.0613 10.8412 62.7397 16.6106V82.4453H0.134033V7.95645Z" fill="#FFAD3B"/>
<path d="M125.345 7.95645C96.0883 1.03306 71.4181 10.8412 62.7397 16.6106V82.4453H125.345V7.95645Z" fill="#FFDBA9"/>
<g style="mix-blend-mode:color-burn">
<path d="M61.9479 61.8412C68.513 61.8412 73.8351 56.3418 73.8351 49.5578C73.8351 42.7739 68.513 37.2744 61.9479 37.2744C55.3828 37.2744 50.0608 42.7739 50.0608 49.5578C50.0608 56.3418 55.3828 61.8412 61.9479 61.8412Z" fill="#FFAD3B"/>
</g>
</svg>
