<svg xmlns="http://www.w3.org/2000/svg" xml:space="preserve" width="90" height="32.482" version="1.1" style="shape-rendering:geometricPrecision; text-rendering:geometricPrecision; image-rendering:optimizeQuality; fill-rule:evenodd; clip-rule:evenodd" viewBox="0 0 8109.345 2926.73" xmlns:xlink="http://www.w3.org/1999/xlink" xmlns:xodm="http://www.corel.com/coreldraw/odm/2003"><defs><style type="text/css">
    .fil2 {fill:red}
    .fil1 {fill:red;fill-rule:nonzero}
    .fil0 {fill:yellow;fill-rule:nonzero}
   </style></defs><g id="Layer_x0020_1"><metadata id="CorelCorpID_0Corel-Layer"/><g id="Backup_of_Round_x0020_logo.cdr"><g><g><path class="fil0" points="11410.93,4118.3 -0,4118.3 -0,0 11410.93,0 " d="M8109.345 2926.73L0 2926.73L0 0L8109.345 0Z"/><path class="fil1" d="m969.297 323.338 0.355 64.948c-21.796 6.844 -39.151 14.014 -51.992 21.519 -12.493 7.86 -22.13 17.873 -29.23 31.454 -6.773 13.14 -11.356 29.969 -13.46 50.486 -1.99 20.958 -2.764 47.209 -2.686 78.543l5.465 982.11 176.664 -1.002c35.491 -0.163 63.505 -6.034 84.86 -17.958 21 -12.287 39.307 -30.601 54.671 -55.098 15.436 -24.731 28.633 -57.145 39.655 -96.885 10.916 -39.79 19.863 -77.178 26.025 -112.285l125.034 -0.647 -17.88 398.534 -868.297 4.946 -0.441 -64.862c22.741 -6.943 40.451 -14.064 53.378 -22.301 13.098 -7.796 22.628 -18.605 28.704 -32.101 6.609 -13.496 10.589 -30.615 12.245 -51.203 1.826 -20.894 2.516 -47.195 2.352 -78.436l-4.69 -849.223c-0.171 -30.971 -1.215 -56.853 -2.956 -77.683 -1.386 -21.27 -5.472 -38.099 -12.046 -51.552 -6.353 -13.055 -16.061 -23.409 -29.151 -31.795 -13.119 -7.938 -31.163 -15.272 -54.508 -21.881l-0.341 -64.941zm3400.779 1080.374c0.263 43.13 2.068 74.058 5.209 92.187 2.857 17.788 7.959 32.229 15.173 43.024 6.851 11.044 17.262 19.657 30.281 27.012 13.012 7.064 33.323 13.353 60.478 18.612l0.355 64.862 -490.174 2.764 -0.334 -64.862c22.649 -6.936 40.344 -14 53.35 -21.569 13.012 -7.81 22.628 -18.335 28.732 -31.795 6.503 -13.41 10.397 -30.679 12.216 -51.196 1.734 -20.865 2.516 -47.259 2.352 -78.443l-4.754 -850.253c-0.107 -30.999 -1.137 -56.896 -2.871 -77.704 -1.393 -21.235 -5.472 -38.056 -12.152 -51.509 -6.332 -13.055 -15.976 -23.431 -29.159 -31.752 -13.005 -8.023 -31.056 -15.315 -54.401 -21.917l-0.434 -64.948 529.296 -3.035c153.93 -0.86 269.257 28.121 346.037 87.263 76.894 59.113 115.583 150.49 116.293 274.004 0.419 87.469 -17.184 163.254 -52.518 228.18 -35.483 64.5 -87.092 113.6 -155.06 147.363 -68.025 33.28 -152.708 50.542 -254.752 51.111 -59.092 0.291 -107.246 -0.689 -144.99 -3.162l1.826 315.748zm-2.359 -427.216 78.365 -0.419c60.662 -0.355 108.824 -10.042 144.741 -28.739 35.732 -19.053 62.027 -49.121 79.133 -89.942 17.241 -40.806 25.591 -95.734 25.143 -164.824 -0.334 -68.323 -9.367 -122.767 -26.97 -163.026 -17.624 -40.252 -42.96 -68.757 -76.61 -85.777 -33.33 -16.971 -76.375 -25.129 -128.609 -24.816 -42.341 0.22 -75.302 1.094 -98.313 2.558l3.12 554.972zm-2365.519 366.575 -299.005 1.635 -22.564 72.111c-6.694 20.14 -11.804 39.797 -15.947 58.786 -3.916 18.84 -5.991 39.044 -5.827 60.229 0.192 49.491 24.482 75.927 73.248 79.218l0.242 49.988 -298.92 1.691 -0.334 -49.981c17.177 -1.997 32.193 -8.954 45.284 -20.147 13.019 -11.101 24.731 -26.238 35.398 -45.468 10.603 -19.43 21.967 -47.01 34.012 -82.984l287.393 -843.751 186.898 -1.03 235.841 847.78c10.504 37.615 19.344 64.607 26.28 80.511 7.043 15.72 16.153 28.697 27.517 38.397 11.278 9.807 27.076 16.978 47.202 21.441l0.178 49.988 -386.751 2.224 -0.249 -49.988c24.39 -3.205 42.27 -10.582 53.989 -22.301 11.527 -11.584 17.262 -28.327 17.177 -49.405 -0.099 -15.656 -1.926 -33.16 -5.053 -52.248 -3.461 -19.181 -9.011 -43.507 -16.829 -72.63l-19.181 -74.044zm-272.789 -87.348 251.966 -1.464 -114.175 -426.001 -137.791 427.472zm1701.118 -374.975c6.247 -23.31 11.96 -46.627 16.324 -70.15 4.669 -23.608 6.751 -43.812 6.687 -60.399 -0.192 -26.302 -5.998 -45.468 -17.987 -57.919 -11.96 -12.245 -29.997 -19.337 -53.605 -21.334l-0.355 -49.981 291.913 -1.613 0.249 49.938c-17.184 4.335 -31.582 11.591 -43.208 21.903 -11.634 10.454 -21.945 25.044 -31.227 43.649 -9.303 19.053 -20.83 50.422 -34.808 94.405L3306.723 1661.541l-166.601 0.959 -162.358 -710.821 -183.849 712.818 -174.838 0.967 -215.545 -848.008c-10.504 -41.261 -19.799 -69.993 -27.766 -86.168 -8.258 -16.089 -17.106 -28.149 -26.998 -36.088 -9.807 -8.272 -22.13 -14.064 -37.047 -18.172l-0.334 -49.96 376.738 -2.111 0.185 49.938c-24.035 3.241 -41.993 10.497 -53.62 22.336 -11.634 11.634 -17.518 28.249 -17.354 49.505 0.163 26.565 7.377 68.295 20.908 124.814l124.26 526.055 196.605 -774.198 158.35 -0.924 168.186 772.159 144.897 -513.896zm2042.386 763.005 -367.726 2.139 -0.249 -49.981c17.44 -5.202 30.971 -10.731 41.112 -16.452 9.892 -5.977 17.269 -14.007 21.967 -24.418 5.117 -10.418 8.066 -23.551 9.367 -39.399 1.4 -16.054 1.99 -36.272 1.826 -60.35l-3.653 -653.556c-0.085 -23.765 -0.938 -43.67 -2.26 -59.724 -0.945 -16.281 -4.065 -29.258 -9.288 -39.52 -4.754 -9.978 -12.131 -18.022 -22.294 -24.44 -10.141 -6.161 -23.949 -11.797 -42 -16.829l-0.249 -49.931 408.341 -2.388c55.283 -0.291 102.03 3.646 140.655 11.712 38.44 8.343 72.282 20.709 101.241 37.701 24.39 14.064 45.141 31.809 62.048 53.186 16.829 21.355 29.848 46.378 39.129 74.833 9.473 28.334 14.064 61.778 14.256 99.401 0.334 49.562 -7.483 92.244 -23.345 127.6 -15.969 35.483 -37.58 65.118 -64.734 88.862 -27.076 23.431 -63.519 45.809 -109.08 66.724l0.107 7.54c34.346 16.097 63.164 37.388 85.799 64.55 22.905 26.693 43.564 60.996 62.041 102.307l44.516 102.727c19.87 45.959 39.733 80.135 59.184 103.125 19.422 22.926 42.576 36.798 69.325 41.744l0.249 49.988 -269.662 1.514c-27.439 -40.259 -58.331 -100.261 -92.678 -179.834l-55.538 -129.32c-16.487 -38.433 -30.637 -65.466 -42.349 -81.726 -11.811 -15.933 -24.042 -27.034 -36.173 -33.16 -12.515 -5.913 -31.689 -8.905 -57.194 -8.72l-40.7 0.22 1.386 244.163c0.192 37.765 2.018 64.443 5.223 79.445 3.376 15.237 9.971 27.453 19.337 36.4 9.288 8.933 26.657 16.921 51.722 23.999l0.341 49.874zM5392.147 699.927l2.231 421.168 69.432 -0.377c37.139 -0.163 68.032 -5.827 92.315 -16.53 24.12 -11.022 43.379 -26.38 57.358 -45.937 14.235 -19.451 23.957 -42.476 29.151 -68.693 5.394 -26.444 7.654 -55.133 7.462 -86.509 -0.327 -68.714 -15.443 -120.209 -45.362 -154.406 -30.203 -34.226 -74.712 -51.019 -133.534 -50.713 -40.089 0.227 -66.39 0.874 -79.047 2.004zm1351.258 -98.008 1.4 241.171 -96.231 0.526c-15.549 -48.076 -28.903 -80.348 -39.648 -97.326 -10.859 -16.722 -23.871 -30.182 -38.71 -39.861 -15.109 -9.679 -40.536 -14.483 -76.368 -14.32l-152.708 0.867 2.004 363.74 92.401 -0.519c20.645 -0.092 36.528 -3.255 48.325 -9.9 11.626 -6.161 21.078 -16.864 28.732 -31.411 7.796 -14.832 14.924 -37.594 21.853 -68.359l79.133 -0.483 1.741 307.853 -79.218 0.434c-6.851 -29.507 -14.064 -51.616 -22.13 -67.144 -7.903 -15.194 -17.539 -26.216 -28.647 -32.698 -10.916 -6.666 -27.403 -9.701 -49.27 -9.573l-92.5 0.561 2.267 404.61 152.018 -0.853c16.217 -0.107 30.196 -1.18 41.389 -3.568 11.022 -2.473 21 -6.311 30.011 -11.868 8.755 -5.721 17.099 -13.225 25.25 -22.862 8.343 -9.615 15.443 -19.991 21.611 -31.141 6.325 -11.236 12.756 -25.982 19.778 -44.132 6.758 -18.42 14.313 -43.237 22.649 -75.181l95.961 -0.561 -11.797 276.669 -688.428 3.902 -0.355 -49.988c17.354 -5.202 31.063 -10.71 41.055 -16.452 9.985 -5.92 17.44 -14.043 22.109 -24.454 5.032 -10.376 8.009 -23.551 9.203 -39.399 1.393 -16.047 2.018 -36.251 1.912 -60.335l-3.646 -653.57c-0.163 -23.679 -0.945 -43.635 -2.16 -59.731 -1.13 -16.175 -4.25 -29.194 -9.452 -39.435 -4.697 -10.056 -12.152 -18.037 -22.222 -24.475 -10.163 -6.169 -24.035 -11.797 -41.993 -16.829l-0.27 -49.988 694.938 -3.937zm430.464 842.791c0.171 33.153 1.492 56.96 3.902 70.939 2.352 13.709 6.083 24.767 11.634 33.067 5.294 8.492 13.36 15.173 23.338 20.766 10.063 5.472 25.591 10.298 46.421 14.235l0.355 49.931 -376.752 2.182 -0.249 -49.981c17.433 -5.266 30.971 -10.71 40.941 -16.495 10.141 -5.955 17.354 -14.064 22.109 -24.433 4.968 -10.411 8.066 -23.551 9.473 -39.378 1.215 -16.047 1.912 -36.23 1.741 -60.35l-3.653 -653.556c-0.085 -23.686 -0.959 -43.656 -2.175 -59.753 -1.215 -16.26 -4.335 -29.187 -9.452 -39.477 -4.584 -10.013 -12.238 -18.051 -22.215 -24.418 -10.141 -6.204 -24.035 -11.804 -42.086 -16.871l-0.192 -49.988 406.792 -2.295c118.368 -0.654 206.953 21.604 265.959 67.101 59.085 45.433 88.925 115.682 89.466 210.677 0.341 67.257 -13.119 125.567 -40.444 175.278 -27.162 49.654 -66.81 87.39 -119.058 113.252 -52.312 25.634 -117.402 38.923 -195.923 39.399 -45.39 0.249 -82.338 -0.59 -111.233 -2.494l1.293 242.656zm-1.819 -328.249 60.122 -0.355c46.605 -0.249 83.659 -7.718 111.34 -22.095 27.41 -14.689 47.721 -37.779 60.812 -69.176 13.297 -31.333 19.536 -73.646 19.373 -126.619 -0.355 -52.468 -7.213 -94.383 -20.744 -125.404 -13.538 -30.957 -33.067 -52.852 -58.914 -65.907 -25.691 -13.055 -58.736 -19.252 -98.939 -19.053 -32.442 0.22 -57.777 0.817 -75.402 1.947l2.352 426.655z"/><path class="fil1" d="m2070.493 2579.699 -0.256 -34.78c13.623 -2.622 24.461 -5.991 32.527 -10.084 7.903 -4.058 13.893 -9.821 17.703 -17.312 3.909 -7.348 6.169 -16.786 7.128 -28.306 0.945 -11.378 1.308 -25.57 1.194 -42.313l-2.935 -526.425 -39.399 0.249c-19.614 0.085 -34.453 2.516 -44.871 7.689 -10.326 4.911 -19.344 12.657 -27.055 23.431 -7.405 10.454 -14.071 24.774 -19.366 42.398 -5.387 17.895 -9.978 34.645 -13.538 50.564l-66.81 0.398 -1.03 -185.292 574.231 -3.255 1.052 185.199 -67.001 0.398c-6.247 -23.935 -11.108 -41.382 -14.924 -52.703 -3.639 -11.108 -7.54 -20.709 -11.96 -28.505 -4.499 -7.938 -9.288 -14.59 -14.064 -19.778 -4.868 -5.266 -10.063 -9.558 -15.805 -12.685 -5.444 -3.07 -12.323 -5.337 -20.638 -6.929 -8.343 -1.62 -19.259 -2.303 -32.456 -2.224l-35.213 0.263 2.935 526.389c0.163 18.534 0.689 32.712 1.741 42.292 1.045 9.722 2.764 17.624 5.55 23.516 2.601 5.991 5.806 10.774 9.544 14.419 3.916 3.724 9.025 6.936 15.628 9.935 6.694 3.12 15.784 5.366 27.247 7.107l0.171 34.83 -269.335 1.521zm552.123 -526.816 189.591 -1.137 1.656 293.035c0.249 33.664 1.301 60.165 3.376 79.175 1.99 19.003 5.884 33.927 11.442 45.07 5.55 10.944 12.422 19.096 20.488 24.084 7.988 5.145 18.136 7.498 30.452 7.498 11.989 -0.085 24.646 -4.25 37.907 -12.28 13.297 -8.187 24.553 -19.65 33.678 -34.261 9.288 -14.832 13.879 -30.239 13.709 -46.939l-1.215 -203.74c0 -25.655 -0.611 -44.594 -1.649 -57.187 -1.03 -12.536 -2.857 -22.222 -5.806 -29.237 -2.786 -7.021 -7.213 -12.97 -13.012 -17.603 -5.913 -4.861 -15.443 -9.345 -28.711 -13.417l-0.192 -34.744 190.124 -1.13 2.068 369.588c0.171 26.678 0.533 46.165 1.393 58.658 0.967 12.152 2.786 22.045 5.913 29.507 2.956 7.419 7.711 13.183 14.228 18.129 6.602 4.612 17.518 8.713 32.79 12.195l0.092 35.391 -132.681 5.394 -58.907 0.291 3.916 -76.048 -5.913 -1.343c-29.926 30.409 -56.91 51.644 -80.511 63.604 -23.708 12.195 -47.551 18.314 -71.671 18.442 -34.453 0.256 -61.97 -6.645 -82.615 -20.432 -20.822 -13.659 -35.825 -33.97 -45.113 -60.968 -9.118 -26.757 -14.064 -61.608 -14.228 -104.112l-1.13 -193.315c-0.085 -19.621 -0.441 -34.773 -0.967 -45.39 -0.519 -10.504 -1.272 -18.776 -2.239 -24.518 -1.052 -5.728 -2.43 -10.966 -4.257 -15.777 -1.905 -4.747 -4.25 -9.082 -7.377 -12.899 -3.312 -3.809 -7.37 -7.249 -12.65 -10.447 -5.387 -3.205 -12.771 -5.856 -21.796 -8.428l-0.163 -34.702zm1037.848 454.328c-28.455 26.721 -54.323 45.326 -77.747 56.27 -23.153 10.752 -48.076 16.296 -74.101 16.466 -48.325 0.277 -84.683 -13.794 -108.639 -41.929 -24.12 -28.093 -36.258 -70.946 -36.528 -128.175l-1.656 -295.239 -61.089 0.398 -0.163 -36.4c19.97 -3.774 34.453 -9.118 43.905 -16.097 9.395 -7.164 16.665 -16.487 21.711 -28.37 5.117 -11.847 9.203 -27.339 12.302 -46.3 2.786 -19.131 5.053 -42.732 6.602 -71.358l116.542 -0.675 0.689 132.07 139.084 -0.817 0.355 65.992 -139.106 0.782 1.4 238.002c0.256 39.84 2.168 69.205 5.636 88.08 3.653 19.181 9.288 33.131 17.525 41.879 8.173 8.919 18.15 13.474 30.381 13.346 9.018 -0.036 17.17 -0.938 24.291 -2.807 7.1 -1.656 14.917 -4.953 22.549 -9.558 8.073 -4.712 16.502 -11.229 25.086 -19.828l30.971 44.26zm348.986 69.894c-47.714 0.277 -89.103 -8.549 -123.727 -26.508 -34.808 -17.916 -61.949 -46.819 -81.833 -86.602 -19.7 -39.79 -29.592 -90.553 -29.926 -152.182 -0.171 -47.131 5.451 -87.995 17.269 -122.49 11.875 -34.659 28.455 -63.164 49.896 -85.855 21.327 -22.592 46.676 -39.442 76.347 -50.322 29.748 -10.852 62.133 -16.53 96.835 -16.736 78.6 -0.398 138.231 21.689 178.405 66.284 40.167 44.722 60.478 110.274 60.982 196.89 0.355 61.174 -9.097 112.576 -28.718 154.136 -19.7 41.389 -47.821 72.317 -84.427 92.585 -36.699 20.14 -80.27 30.495 -131.111 30.807zm-87.369 -277.756c0.419 74.627 8.492 130.478 24.02 167.504 15.72 37.111 39.065 55.453 70.477 55.29 17.084 -0.092 31.497 -4.783 43.024 -14.441 11.378 -9.772 20.56 -23.431 27.517 -41.261 6.858 -18.15 11.797 -39.74 14.569 -64.869 2.701 -25.172 4.086 -53.499 3.894 -84.853 -0.334 -75.465 -8.571 -132.034 -24.099 -169.43 -15.628 -37.409 -38.618 -55.979 -68.821 -55.787 -22.215 0.085 -39.819 7.746 -53.023 22.99 -13.261 15.002 -22.99 37.786 -28.881 68.103 -6.076 30.246 -8.947 69.155 -8.677 116.755m693.616 -182.342 6.353 1.457c23.324 -30.445 47.721 -52.348 72.694 -65.836 25.008 -13.417 52.085 -20.389 81.4 -20.524 19.863 -0.121 40.7 2.246 62.475 6.545l0.775 145.772 -88.421 0.483c-5.55 -20.517 -12.742 -36.152 -21.853 -46.868 -9.011 -10.873 -21.164 -16.21 -35.924 -16.175 -7.206 0.085 -15.109 2.423 -23.701 7.291 -8.592 4.754 -16.473 11.484 -23.765 20.14 -7.213 8.798 -12.408 17.561 -15.528 26.408 -2.878 9.025 -4.953 18.101 -5.728 27.24 -1.052 9.246 -1.4 22.912 -1.322 41.311l0.967 168.342c0.163 33.487 1.379 56.775 3.809 70.178 2.267 13.289 6.766 23.864 13.623 31.369 7.036 7.419 18.648 12.771 34.801 15.933l0.163 34.83 -240.347 1.393 -0.27 -34.794c15.628 -4.896 26.465 -10.788 32.378 -18.285 5.991 -7.384 9.892 -17.582 12.138 -30.161 1.983 -12.515 2.786 -35.711 2.622 -69.155l-1.215 -216.923c-0.163 -25.946 -0.526 -45.319 -1.4 -57.884 -0.945 -12.451 -2.857 -22.528 -6.083 -30.033 -3.106 -7.59 -7.881 -13.666 -14.142 -18.293 -6.311 -4.904 -17.411 -8.954 -33.046 -12.28l-0.277 -35.874 133.648 -5.081 61.522 -0.355 -6.353 79.822zm556.735 -289.283 0.696 129.405 -133.534 0.753 -0.796 -129.341zm-181.44 700.616c15.883 -4.818 26.998 -10.752 32.968 -18.321 5.913 -7.327 9.807 -17.511 11.904 -30.082 2.075 -12.536 2.857 -35.754 2.764 -69.205l-1.301 -245.4c-0.163 -17.312 -0.967 -31.184 -2.43 -41.851 -1.571 -10.418 -4.25 -18.84 -8.507 -25.165 -4.065 -6.311 -9.537 -11.072 -16.473 -14.483 -7.121 -3.226 -16.239 -6.041 -27.261 -8.507l-0.256 -35.853 134.23 -5.074 60.84 -0.441 2.16 375.416c0.192 19.842 0.355 34.972 0.874 45.831 0.696 10.624 1.386 18.861 2.416 24.625 1.052 5.913 2.452 11.03 4.172 15.592 1.912 4.584 4.172 8.841 7.291 12.614 2.786 3.958 7.213 7.377 12.678 10.539 5.451 3.077 12.849 5.913 22.045 8.428l0.256 34.744 -238.201 1.386 -0.163 -34.787zm697.205 -38.39 -7.213 -2.516c-26.714 28.178 -52.326 48.808 -77.576 61.551 -25.065 12.97 -51.729 19.366 -80.078 19.572 -27.958 0.121 -52.319 -5.33 -73.078 -16.224 -20.638 -10.98 -36.358 -26.252 -46.939 -45.952 -10.674 -19.7 -16.146 -42.384 -16.31 -68.032 -0.163 -51.85 22.99 -92.628 69.851 -122.597 46.776 -30.068 118.091 -49.121 213.548 -57.521l-0.185 -50.066c-0.163 -32.762 -3.98 -57.962 -10.838 -75.799 -6.851 -17.617 -15.699 -30.189 -26.55 -37.324 -10.582 -7.149 -23.594 -10.66 -38.44 -10.56 -15.002 0.092 -27.958 3.106 -38.788 8.762 -10.852 5.643 -20.638 16.31 -29.422 31.98 -8.507 15.748 -14.917 37.601 -19.174 65.239l-92.06 0.569 -0.526 -96.025c29.862 -14.562 54.679 -25.939 74.456 -33.778 19.785 -7.817 39.399 -14.235 58.573 -19.614 19.344 -5.032 36.699 -8.848 51.978 -11.03 15.251 -2.111 30.367 -3.333 45.724 -3.411 39.485 -0.235 70.981 5.238 94.497 16.431 23.765 11.058 41.474 29.336 53.271 54.586 11.804 25.293 17.795 60.165 17.958 104.844l1.215 206.086c0.085 23.139 0.775 40.991 1.826 53.84 1.045 12.55 2.594 21.967 4.861 28.149 2.068 6.14 4.854 11.001 8.059 14.583 3.29 3.774 7.384 6.815 12.06 8.912 4.776 2.388 13.638 5.195 26.565 8.798l0.249 34.702 -181.44 1.094 3.916 -69.24zm-16.928 -180.026c-50.429 1.741 -87.646 12.323 -111.93 31.376 -24.035 19.216 -35.917 47.025 -35.832 83.659 0.163 21.817 5.82 38.269 17.013 49.789 10.916 11.271 26.28 16.928 45.895 16.829 15.009 -0.128 29.073 -4.499 42.249 -13.225 13.375 -8.72 23.871 -20.304 31.497 -34.744 7.654 -14.462 11.626 -29.827 11.626 -46.094l-0.519 -87.597zm539.885 93.595c0.178 33.579 1.379 56.612 3.283 69.247 1.926 12.579 5.991 22.819 12.159 30.324 5.991 7.54 17.44 13.36 34.091 18.037l0.085 34.787 -239.132 1.364 -0.085 -34.851c9.807 -2.509 17.354 -5.444 22.819 -9.011 5.55 -3.205 9.892 -7.171 12.842 -11.463 3.042 -4.591 5.799 -10.333 8.066 -17.099 2.16 -6.829 3.56 -16.395 4.172 -28.462 0.505 -12.01 0.775 -29.571 0.611 -52.099l-2.267 -411.716c-0.256 -30.281 -0.441 -52.412 -0.938 -66.596 -0.696 -14.505 -1.741 -26.387 -3.226 -36.066 -1.549 -9.587 -3.987 -17.312 -7.462 -23.203 -3.461 -5.721 -8.244 -10.411 -14.398 -13.851 -6.076 -3.504 -16.139 -6.495 -29.947 -9.303l-0.085 -34.901 134.941 -8.059 61.181 -0.405 3.29 603.319z"/><path class="fil2" points="2304.21,3250.75 647.83,3260.16 646.49,3022.54 2302.87,3013.16 " d="M1637.521 2310.193L460.39 2316.881L459.438 2148.013L1636.568 2141.346Z"/><path class="fil2" points="9120.14,3212.1 10776.52,3202.7 10775.28,2965.11 9118.81,2974.52 " d="M6481.362 2282.726L7658.492 2276.046L7657.611 2107.199L6480.416 2113.886Z"/></g></g></g></g></svg>