<svg width="18" height="22" viewBox="0 0 18 22" fill="none" xmlns="http://www.w3.org/2000/svg">
<g clip-path="url(#clip0_146_2746)">
<path d="M10.9993 1H2.99927C2.46883 1 1.96013 1.21071 1.58505 1.58579C1.20998 1.96086 0.999268 2.46957 0.999268 3V19C0.999268 19.5304 1.20998 20.0391 1.58505 20.4142C1.96013 20.7893 2.46883 21 2.99927 21H14.9993C15.5297 21 16.0384 20.7893 16.4135 20.4142C16.7886 20.0391 16.9993 19.5304 16.9993 19V7L10.9993 1Z" stroke="#3C4852" stroke-width="1.75" stroke-linecap="round" stroke-linejoin="round"/>
<path d="M11.0007 1V7H17.0007" stroke="#3C4852" stroke-width="1.75" stroke-linecap="round" stroke-linejoin="round"/>
<path d="M13.0007 12H5.00073" stroke="#EE2C3C" stroke-width="1.75" stroke-linecap="round" stroke-linejoin="round"/>
<path d="M13.0007 16H5.00073" stroke="#EE2C3C" stroke-width="1.75" stroke-linecap="round" stroke-linejoin="round"/>
<path d="M7.00073 8H6.00073H5.00073" stroke="#EE2C3C" stroke-width="1.75" stroke-linecap="round" stroke-linejoin="round"/>
</g>
<defs>
<clipPath id="clip0_146_2746">
<rect width="18" height="22" fill="white"/>
</clipPath>
</defs>
</svg>
