<svg width="38" height="33" viewBox="0 0 38 33" fill="none" xmlns="http://www.w3.org/2000/svg">
<g style="mix-blend-mode:luminosity" opacity="0.5" clip-path="url(#clip0_146_2854)">
<path d="M27 1.20703C25.9391 1.20703 24.9217 1.5728 24.1716 2.22387C23.4214 2.87494 23 3.75798 23 4.67873V15.0938C23 16.0146 23.4214 16.8976 24.1716 17.5487C24.9217 18.1998 25.9391 18.5655 27 18.5655C27.5304 18.5655 28.0391 18.7484 28.4142 19.0739C28.7893 19.3995 29 19.841 29 20.3014V22.0372C29 22.958 28.5786 23.841 27.8284 24.4921C27.0783 25.1432 26.0609 25.5089 25 25.5089C24.4696 25.5089 23.9609 25.6918 23.5858 26.0173C23.2107 26.3429 23 26.7844 23 27.2448V30.7165C23 31.1768 23.2107 31.6184 23.5858 31.9439C23.9609 32.2694 24.4696 32.4523 25 32.4523C28.1826 32.4523 31.2348 31.355 33.4853 29.4018C35.7357 27.4486 37 24.7995 37 22.0372V4.67873C37 3.75798 36.5786 2.87494 35.8284 2.22387C35.0783 1.5728 34.0609 1.20703 33 1.20703H27Z" fill="#FFB8BA"/>
<path d="M5 1.20703C3.93913 1.20703 2.92172 1.5728 2.17157 2.22387C1.42143 2.87494 1 3.75798 1 4.67873V15.0938C1 16.0146 1.42143 16.8976 2.17157 17.5487C2.92172 18.1998 3.93913 18.5655 5 18.5655C5.53043 18.5655 6.03914 18.7484 6.41421 19.0739C6.78929 19.3995 7 19.841 7 20.3014V22.0372C7 22.958 6.57857 23.841 5.82843 24.4921C5.07828 25.1432 4.06087 25.5089 3 25.5089C2.46957 25.5089 1.96086 25.6918 1.58579 26.0173C1.21071 26.3429 1 26.7844 1 27.2448V30.7165C1 31.1768 1.21071 31.6184 1.58579 31.9439C1.96086 32.2694 2.46957 32.4523 3 32.4523C6.1826 32.4523 9.23484 31.355 11.4853 29.4018C13.7357 27.4486 15 24.7995 15 22.0372V4.67873C15 3.75798 14.5786 2.87494 13.8284 2.22387C13.0783 1.5728 12.0609 1.20703 11 1.20703H5Z" fill="#FFB8BA"/>
<path d="M27 1.20703C25.9391 1.20703 24.9217 1.5728 24.1716 2.22387C23.4214 2.87494 23 3.75798 23 4.67873V15.0938C23 16.0146 23.4214 16.8976 24.1716 17.5487C24.9217 18.1998 25.9391 18.5655 27 18.5655C27.5304 18.5655 28.0391 18.7484 28.4142 19.0739C28.7893 19.3995 29 19.841 29 20.3014V22.0372C29 22.958 28.5786 23.841 27.8284 24.4921C27.0783 25.1432 26.0609 25.5089 25 25.5089C24.4696 25.5089 23.9609 25.6918 23.5858 26.0173C23.2107 26.3429 23 26.7844 23 27.2448V30.7165C23 31.1768 23.2107 31.6184 23.5858 31.9439C23.9609 32.2694 24.4696 32.4523 25 32.4523C28.1826 32.4523 31.2348 31.355 33.4853 29.4018C35.7357 27.4486 37 24.7995 37 22.0372V4.67873C37 3.75798 36.5786 2.87494 35.8284 2.22387C35.0783 1.5728 34.0609 1.20703 33 1.20703H27Z" stroke="#F00109" stroke-linecap="round" stroke-linejoin="round"/>
<path d="M5 1.20703C3.93913 1.20703 2.92172 1.5728 2.17157 2.22387C1.42143 2.87494 1 3.75798 1 4.67873V15.0938C1 16.0146 1.42143 16.8976 2.17157 17.5487C2.92172 18.1998 3.93913 18.5655 5 18.5655C5.53043 18.5655 6.03914 18.7484 6.41421 19.0739C6.78929 19.3995 7 19.841 7 20.3014V22.0372C7 22.958 6.57857 23.841 5.82843 24.4921C5.07828 25.1432 4.06087 25.5089 3 25.5089C2.46957 25.5089 1.96086 25.6918 1.58579 26.0173C1.21071 26.3429 1 26.7844 1 27.2448V30.7165C1 31.1768 1.21071 31.6184 1.58579 31.9439C1.96086 32.2694 2.46957 32.4523 3 32.4523C6.1826 32.4523 9.23484 31.355 11.4853 29.4018C13.7357 27.4486 15 24.7995 15 22.0372V4.67873C15 3.75798 14.5786 2.87494 13.8284 2.22387C13.0783 1.5728 12.0609 1.20703 11 1.20703H5Z" stroke="#F00109" stroke-linecap="round" stroke-linejoin="round"/>
</g>
<defs>
<clipPath id="clip0_146_2854">
<rect width="38" height="33" fill="white"/>
</clipPath>
</defs>
</svg>
