<svg width="24" height="25" viewBox="0 0 24 25" fill="none" xmlns="http://www.w3.org/2000/svg">
<path d="M15.4024 21.7695V14.8039H17.7347L18.0838 12.096H15.4024V10.3672C15.4024 9.58317 15.62 9.04887 16.7443 9.04887L18.1783 9.0482V6.62629C17.9302 6.59335 17.0791 6.51959 16.0888 6.51959C14.0213 6.51959 12.606 7.78151 12.606 10.0991V12.096H10.2677V14.8039H12.606V21.7695H4C3.44772 21.7695 3 21.3218 3 20.7695V4.76953C3 4.21725 3.44772 3.76953 4 3.76953H20C20.5523 3.76953 21 4.21725 21 4.76953V20.7695C21 21.3218 20.5523 21.7695 20 21.7695H15.4024Z" fill="#F7F9FB"/>
</svg>
