<svg width="24" height="25" viewBox="0 0 24 25" fill="none" xmlns="http://www.w3.org/2000/svg">
<path d="M13.0271 2.76953C14.1525 2.77139 14.7228 2.77734 15.2156 2.79201L15.4097 2.79836C15.6339 2.80633 15.8551 2.81633 16.1218 2.82883C17.1859 2.87799 17.9118 3.04633 18.5493 3.29383C19.2084 3.54799 19.7651 3.89133 20.3209 4.44716C20.8759 5.00299 21.2193 5.56133 21.4743 6.21883C21.7209 6.85549 21.8893 7.58216 21.9393 8.64633C21.9512 8.91299 21.9608 9.13419 21.9687 9.35844L21.975 9.55252C21.9896 10.0453 21.9963 10.6157 21.9984 11.7411L21.9992 12.4868C21.9993 12.5779 21.9993 12.6719 21.9993 12.7689L21.9992 13.051L21.9986 13.7967C21.9967 14.9221 21.9908 15.4924 21.9761 15.9852L21.9697 16.1793C21.9618 16.4035 21.9518 16.6247 21.9393 16.8914C21.8901 17.9555 21.7209 18.6814 21.4743 19.3189C21.2201 19.978 20.8759 20.5347 20.3209 21.0905C19.7651 21.6455 19.2059 21.9889 18.5493 22.2439C17.9118 22.4904 17.1859 22.6589 16.1218 22.7089C15.8551 22.7208 15.6339 22.7304 15.4097 22.7383L15.2156 22.7446C14.7228 22.7592 14.1525 22.7659 13.0271 22.768L12.2814 22.7688C12.1903 22.7689 12.0963 22.7689 11.9993 22.7689L11.7172 22.7688L10.9715 22.7682C9.84612 22.7663 9.27574 22.7604 8.78299 22.7457L8.58891 22.7393C8.36466 22.7313 8.14346 22.7214 7.8768 22.7089C6.81263 22.6597 6.08763 22.4904 5.4493 22.2439C4.79096 21.9897 4.23346 21.6455 3.67763 21.0905C3.1218 20.5347 2.7793 19.9755 2.5243 19.3189C2.2768 18.6814 2.1093 17.9555 2.0593 16.8914C2.04742 16.6247 2.03773 16.4035 2.02988 16.1793L2.02359 15.9852C2.00896 15.4924 2.00229 14.9221 2.00013 13.7967L2 11.7411C2.00186 10.6157 2.00781 10.0453 2.02248 9.55252L2.02883 9.35844C2.0368 9.13419 2.0468 8.91299 2.0593 8.64633C2.10846 7.58133 2.2768 6.85633 2.5243 6.21883C2.77846 5.56049 3.1218 5.00299 3.67763 4.44716C4.23346 3.89133 4.7918 3.54883 5.4493 3.29383C6.0868 3.04633 6.8118 2.87883 7.8768 2.82883C8.14346 2.81695 8.36466 2.80726 8.58891 2.79941L8.78299 2.79312C9.27574 2.77849 9.84612 2.77182 10.9715 2.76966L13.0271 2.76953ZM11.9993 7.76883C9.2364 7.76883 6.9993 10.0084 6.9993 12.7689C6.9993 15.5318 9.23883 17.7689 11.9993 17.7689C14.7622 17.7689 16.9993 15.5293 16.9993 12.7689C16.9993 10.0059 14.7597 7.76883 11.9993 7.76883ZM11.9993 9.76883C13.6562 9.76883 14.9993 11.1115 14.9993 12.7689C14.9993 14.4258 13.6566 15.7689 11.9993 15.7689C10.3424 15.7689 8.9993 14.4262 8.9993 12.7689C8.9993 11.112 10.3419 9.76883 11.9993 9.76883ZM17.2493 6.26883C16.56 6.26883 15.9993 6.82873 15.9993 7.51798C15.9993 8.20722 16.5592 8.76799 17.2493 8.76799C17.9385 8.76799 18.4993 8.20809 18.4993 7.51798C18.4993 6.82873 17.9376 6.26796 17.2493 6.26883Z" fill="#F7F9FB"/>
</svg>
