<svg width="24" height="25" viewBox="0 0 24 25" fill="none" xmlns="http://www.w3.org/2000/svg">
<path d="M22.2125 6.42656C21.4491 6.76426 20.6395 6.98606 19.8106 7.08462C20.6839 6.56183 21.3374 5.73941 21.6493 4.77056C20.8287 5.25812 19.9305 5.60128 18.9938 5.78512C18.2031 4.94157 17.098 4.46354 15.9418 4.46485C13.6326 4.46485 11.7597 6.33712 11.7597 8.64734C11.7597 8.97509 11.7973 9.29293 11.8676 9.5996C8.39048 9.42455 5.31008 7.76056 3.24678 5.22992C2.87529 5.86818 2.68006 6.59369 2.68105 7.33218C2.68105 8.7831 3.41961 10.0637 4.5415 10.8135C3.87738 10.7925 3.22789 10.6131 2.64719 10.2902C2.64655 10.3078 2.64654 10.3254 2.64654 10.342C2.64654 12.3689 4.0882 14.0597 6.002 14.4436C5.64281 14.5408 5.27232 14.5899 4.90022 14.5896C4.62997 14.5896 4.36772 14.5647 4.1128 14.5158C4.64532 16.177 6.18886 17.3864 8.0196 17.4196C6.53813 18.5823 4.70869 19.2131 2.82543 19.2104C2.49212 19.2107 2.15909 19.191 1.82812 19.1516C3.74004 20.3807 5.96552 21.033 8.23842 21.0306C15.9316 21.0306 20.138 14.658 20.138 9.13162C20.138 8.95081 20.1336 8.76937 20.1256 8.59048C20.9443 7.99896 21.651 7.26618 22.2125 6.42656Z" fill="#F7F9FB"/>
</svg>
