<svg width="24" height="25" viewBox="0 0 24 25" fill="none" xmlns="http://www.w3.org/2000/svg">
<path d="M18.3372 19.1085H15.6717V14.9317C15.6717 13.9357 15.6515 12.654 14.2827 12.654C12.893 12.654 12.6807 13.7378 12.6807 14.8582V19.1085H10.0152V10.5195H12.5757V11.6902H12.6102C12.968 11.0152 13.838 10.3028 15.1377 10.3028C17.8385 10.3028 18.338 12.0803 18.338 14.394L18.3372 19.1085ZM7.0047 9.34428C6.1467 9.34428 5.45745 8.64978 5.45745 7.79553C5.45745 6.94203 6.14745 6.24828 7.0047 6.24828C7.8597 6.24828 8.5527 6.94203 8.5527 7.79553C8.5527 8.64978 7.85895 9.34428 7.0047 9.34428ZM8.3412 19.1085H5.6682V10.5195H8.3412V19.1085ZM19.6707 3.76953H4.3302C3.59595 3.76953 3.00195 4.35003 3.00195 5.06628V20.4728C3.00195 21.1897 3.59595 21.7695 4.3302 21.7695H19.6685C20.402 21.7695 21.002 21.1897 21.002 20.4728V5.06628C21.002 4.35003 20.402 3.76953 19.6685 3.76953H19.6707Z" fill="#F7F9FB"/>
</svg>
