<svg width="18" height="18" viewBox="0 0 18 18" fill="none" xmlns="http://www.w3.org/2000/svg">
<path d="M2.25 8.25H4.5C4.89782 8.25 5.27936 8.40804 5.56066 8.68934C5.84196 8.97064 6 9.35218 6 9.75V12C6 12.3978 5.84196 12.7794 5.56066 13.0607C5.27936 13.342 4.89782 13.5 4.5 13.5H3.75C3.35218 13.5 2.97064 13.342 2.68934 13.0607C2.40804 12.7794 2.25 12.3978 2.25 12V8.25ZM2.25 8.25C2.25 7.36358 2.42459 6.48583 2.76381 5.66689C3.10303 4.84794 3.60023 4.10382 4.22703 3.47703C4.85382 2.85023 5.59794 2.35303 6.41689 2.01381C7.23583 1.67459 8.11358 1.5 9 1.5C9.88642 1.5 10.7642 1.67459 11.5831 2.01381C12.4021 2.35303 13.1462 2.85023 13.773 3.47703C14.3998 4.10382 14.897 4.84794 15.2362 5.66689C15.5754 6.48583 15.75 7.36358 15.75 8.25M15.75 8.25V12M15.75 8.25H13.5C13.1022 8.25 12.7206 8.40804 12.4393 8.68934C12.158 8.97064 12 9.35218 12 9.75V12C12 12.3978 12.158 12.7794 12.4393 13.0607C12.7206 13.342 13.1022 13.5 13.5 13.5H14.25C14.6478 13.5 15.0294 13.342 15.3107 13.0607C15.592 12.7794 15.75 12.3978 15.75 12M15.75 12V13.5C15.75 14.2956 15.4339 15.0587 14.8713 15.6213C14.3087 16.1839 13.5456 16.5 12.75 16.5H9" stroke="#3C4852" stroke-width="1.5" stroke-linecap="round" stroke-linejoin="round"/>
</svg>
