<svg width="21" height="18" viewBox="0 0 21 18" fill="none" xmlns="http://www.w3.org/2000/svg">
<path opacity="0.3" d="M17.5001 5.6998C17.5001 4.37432 16.4256 3.2998 15.1001 3.2998H2.5001C1.17462 3.2998 0.100098 4.37432 0.100098 5.6998V15.2998C0.100098 16.6253 1.17462 17.6998 2.5001 17.6998H15.1001C16.4256 17.6998 17.5001 16.6253 17.5001 15.2998V5.6998Z" fill="#F1B334"/>
<path d="M20.2027 2.6998C20.2027 1.37432 19.1282 0.299805 17.8027 0.299805H5.20273C3.87725 0.299805 2.80273 1.37432 2.80273 2.6998V12.2998C2.80273 13.6253 3.87725 14.6998 5.20273 14.6998H17.8027C19.1282 14.6998 20.2027 13.6253 20.2027 12.2998V2.6998Z" fill="#F1B334"/>
<path d="M8.39069 7.19508C7.53419 7.19508 6.83984 6.51573 6.83984 5.6776C6.83984 4.83955 7.53419 4.16016 8.39069 4.16016C9.24719 4.16016 9.94147 4.83955 9.94147 5.6776C9.94147 6.51573 9.24719 7.19508 8.39069 7.19508Z" fill="white"/>
<path d="M8.39082 11.0222C6.80014 11.0222 5.51074 9.76048 5.51074 8.20401V8.00481C5.51074 7.87543 5.61792 7.77051 5.75022 7.77051H11.0313C11.1636 7.77051 11.2709 7.87543 11.2709 8.00481V8.20401C11.2709 9.76048 9.98142 11.0222 8.39082 11.0222Z" fill="white"/>
<path d="M10.5667 4.79235C10.5667 6.19275 11.7246 7.31423 13.1357 7.31423C14.5468 7.31423 15.7048 6.19275 15.7048 4.79235C15.7048 3.39194 14.5468 2.27051 13.1357 2.27051C11.7246 2.27051 10.5667 3.39194 10.5667 4.79235ZM8.68604 8.36723C8.68604 10.784 10.686 12.7292 13.1357 12.7292C15.5854 12.7292 17.5854 10.784 17.5854 8.36723V8.08538C17.5854 7.6875 17.258 7.37888 16.8715 7.37888H9.39988C9.01341 7.37888 8.68604 7.6875 8.68604 8.08538V8.36723Z" fill="white" stroke="#F1B334" stroke-width="0.75"/>
</svg>
