<svg width="22" height="18" viewBox="0 0 22 18" fill="none" xmlns="http://www.w3.org/2000/svg">
<path opacity="0.3" d="M17.9002 5.99961C17.9002 4.67413 16.8257 3.59961 15.5003 3.59961H2.90024C1.57476 3.59961 0.500244 4.67413 0.500244 5.99961V15.5996C0.500244 16.9251 1.57476 17.9996 2.90024 17.9996H15.5003C16.8257 17.9996 17.9002 16.9251 17.9002 15.5996V5.99961Z" fill="#5873FF"/>
<path d="M21.5001 2.4C21.5001 1.07452 20.4256 0 19.1001 0H6.5001C5.17462 0 4.1001 1.07452 4.1001 2.4V12C4.1001 13.3255 5.17462 14.4 6.5001 14.4H19.1001C20.4256 14.4 21.5001 13.3255 21.5001 12V2.4Z" fill="#5873FF"/>
<path d="M15.2209 7.76213C15.5929 7.47758 15.5929 6.92243 15.2209 6.63795C14.0971 5.77808 12.8421 5.10038 11.503 4.63013L11.2584 4.54418C10.7904 4.37983 10.296 4.6929 10.2326 5.17058C10.0556 6.50528 10.0556 7.89473 10.2326 9.22943C10.296 9.7071 10.7904 10.0202 11.2584 9.85583L11.503 9.76988C12.8421 9.2997 14.0971 8.62193 15.2209 7.76213Z" fill="white"/>
</svg>
