<svg width="22" height="20" viewBox="0 0 22 20" fill="none" xmlns="http://www.w3.org/2000/svg">
<path opacity="0.3" d="M5.5998 2.99277C5.5998 1.66729 4.52529 0.592773 3.1998 0.592773C1.87432 0.592773 0.799805 1.66729 0.799805 2.99277V17.3822C0.799805 18.7077 1.87432 19.7822 3.1998 19.7822H5.5998V2.99277Z" fill="#199AA2"/>
<path d="M21.1996 2.98301C21.1996 1.65753 20.1251 0.583008 18.7996 0.583008H7.99961C6.67413 0.583008 5.59961 1.65753 5.59961 2.98301V19.783H18.7996C20.1251 19.783 21.1996 18.7085 21.1996 17.383V2.98301Z" fill="#199AA2"/>
<path fill-rule="evenodd" clip-rule="evenodd" d="M13.7093 5.64912C13.9682 5.89444 13.9724 6.29629 13.7187 6.54657L10.5031 9.71967C10.3797 9.84147 10.2107 9.91009 10.0344 9.91009C9.85806 9.91009 9.68908 9.84147 9.56571 9.71967L8.18758 8.35977C7.93386 8.10942 7.93806 7.70764 8.19696 7.46232C8.45578 7.21699 8.87128 7.22104 9.12493 7.47139L10.0344 8.36877L12.7813 5.65819C13.035 5.40789 13.4505 5.40383 13.7093 5.64912Z" fill="white"/>
<path d="M18.5 13.0839C18.5 13.4343 18.2062 13.7184 17.8438 13.7184H8.65625C8.29385 13.7184 8 13.4343 8 13.0839C8 12.7333 8.29385 12.4492 8.65625 12.4492H17.8438C18.2062 12.4492 18.5 12.7333 18.5 13.0839Z" fill="white"/>
<path d="M18.5 15.8524C18.5 16.2029 18.2062 16.487 17.8438 16.487H8.65625C8.29385 16.487 8 16.2029 8 15.8524C8 15.5019 8.29385 15.2178 8.65625 15.2178H17.8438C18.2062 15.2178 18.5 15.5019 18.5 15.8524Z" fill="white"/>
</svg>
