<svg width="22" height="20" viewBox="0 0 22 20" fill="none" xmlns="http://www.w3.org/2000/svg">
<path opacity="0.3" d="M5.5998 3.40039H3.19981C1.87433 3.40039 0.799805 4.4749 0.799805 5.80039V17.2004C0.799805 18.5259 1.87432 19.6004 3.1998 19.6004H5.5998V3.40039Z" fill="#9875FF"/>
<path d="M21.2001 2.80039C21.2001 1.47491 20.1256 0.400391 18.8001 0.400391H8.0001C6.67462 0.400391 5.6001 1.4749 5.6001 2.80039V19.6004H18.8001C20.1256 19.6004 21.2001 18.5259 21.2001 17.2004V2.80039Z" fill="#9875FF"/>
<path d="M14.3941 6.30487C14.3941 6.2226 14.3428 6.14827 14.2638 6.11602C14.1848 6.08377 14.0933 6.0999 14.0313 6.1569L13.2694 6.85867C12.135 7.90357 11.1764 9.11055 10.4278 10.4365C10.4102 10.4664 10.4001 10.5008 10.4001 10.5376C10.4001 10.6509 10.4961 10.7428 10.6144 10.7428H12.4614V13.6938C12.4614 13.7751 12.5115 13.8487 12.5891 13.8815C12.6667 13.9144 12.7572 13.9003 12.82 13.8455L13.1609 13.5481C14.3543 12.5068 15.367 11.2902 16.1611 9.94395L16.372 9.58642C16.4095 9.5229 16.4089 9.44505 16.3705 9.38205C16.3321 9.31897 16.2616 9.2802 16.1854 9.2802H14.3941V6.30487Z" fill="white"/>
</svg>
