<svg width="22" height="20" viewBox="0 0 22 20" fill="none" xmlns="http://www.w3.org/2000/svg">
<path opacity="0.3" d="M5.5998 3.40039H3.19981C1.87433 3.40039 0.799805 4.4749 0.799805 5.80039V17.2004C0.799805 18.5259 1.87432 19.6004 3.1998 19.6004H5.5998V3.40039Z" fill="#46BBE7"/>
<path d="M21.1996 2.80039C21.1996 1.4749 20.1251 0.400391 18.7996 0.400391H7.99961C6.67413 0.400391 5.59961 1.4749 5.59961 2.80039V19.6004H18.7996C20.1251 19.6004 21.1996 18.5259 21.1996 17.2004V2.80039Z" fill="#46BBE7"/>
<path d="M18.1996 13.6C18.1996 13.9313 17.931 14.2 17.5996 14.2H9.19961C8.86826 14.2 8.59961 13.9313 8.59961 13.6C8.59961 13.2686 8.86826 13 9.19961 13H17.5996C17.931 13 18.1996 13.2686 18.1996 13.6Z" fill="white"/>
<path d="M17.5996 7.89936C17.5996 7.62321 17.3757 7.39941 17.0996 7.39941H15.0996C14.8235 7.39941 14.5996 7.62321 14.5996 7.89936C14.5996 8.17551 14.8235 8.39939 15.0996 8.39939H17.0996C17.3757 8.39939 17.5996 8.17551 17.5996 7.89936Z" fill="white"/>
<path d="M16.0996 9.40039C16.3758 9.40039 16.5997 9.17652 16.5997 8.90037V6.90042C16.5997 6.62427 16.3758 6.40039 16.0996 6.40039C15.8235 6.40039 15.5996 6.62427 15.5996 6.90042V8.90037C15.5996 9.17652 15.8235 9.40039 16.0996 9.40039Z" fill="white"/>
<path d="M9.49881 10.446C9.35541 10.8076 9.62181 11.1998 10.0108 11.1998C10.2426 11.1998 10.4497 11.0545 10.5286 10.8365L10.7881 10.1198H13.0034L13.2694 10.8395C13.3494 11.056 13.5558 11.1998 13.7866 11.1998C14.1764 11.1998 14.4432 10.8064 14.299 10.4443L12.6391 6.27568C12.5246 5.98835 12.2466 5.7998 11.9374 5.7998H11.8549C11.5452 5.7998 11.2669 5.9888 11.1527 6.27658L9.49881 10.446ZM11.1138 9.20713L11.8848 7.10038C11.8864 7.0958 11.8909 7.09273 11.8957 7.09273C11.9006 7.09273 11.905 7.0958 11.9067 7.10038L12.6776 9.20713H11.1138Z" fill="white"/>
</svg>
